HIERARCHY
ROOT Hips
{
	OFFSET 0.000000 0.000000 0.000000 
	CHANNELS 6 Xposition Yposition Zposition Yrotation Zrotation Xrotation 
	JOINT Lumbar
	{
		OFFSET 0.000000 0.000000 0.000000 
		CHANNELS 3 Zrotation Xrotation Yrotation
		JOINT Neck
		{
			OFFSET 0.000000 0.445665 0.000000 
			CHANNELS 3 Zrotation Xrotation Yrotation
			End Site
			{
				OFFSET 0.000000 0.227535 0.000000 
			}
		}
		JOINT RightShoulder
		{
			OFFSET 0.019635 0.377685 0.194865 
			CHANNELS 3 Zrotation Xrotation Yrotation
			JOINT RightElbow
			{
				OFFSET 0.000000 -0.243375 0.000000 
				CHANNELS 2 Zrotation Yrotation
				JOINT RightWrist
				{
					OFFSET 0.000000 -0.264825 0.000000 
					CHANNELS 2 Zrotation Xrotation
					End Site
					{
						OFFSET 0.006600 -0.176220 0.000990 
					}
				}
			}
		}
		JOINT LeftShoulder
		{
			OFFSET 0.019635 0.377685 -0.194865 
			CHANNELS 3 Zrotation Xrotation Yrotation
			JOINT LeftElbow
			{
				OFFSET 0.000000 -0.243375 0.000000 
				CHANNELS 2 Zrotation Yrotation
				JOINT LeftWrist
				{
					OFFSET 0.000000 -0.264825 0.000000 
					CHANNELS 2 Zrotation Xrotation
					End Site
					{
						OFFSET 0.006600 -0.176220 -0.000990 
					}
				}
			}
		}
	}
	JOINT RightHip
	{
		OFFSET 0.052140 -0.069960 0.075570 
		CHANNELS 3 Zrotation Xrotation Yrotation
		JOINT RightKnee
		{
			OFFSET 0.000000 -0.402270 0.000000 
			CHANNELS 1 Zrotation
			JOINT RightAnkle
			{
				OFFSET 0.000000 -0.404085 0.000000 
				CHANNELS 3 Zrotation Xrotation Yrotation
				End Site
				{
					OFFSET 0.204105 -0.089430 0.008415 
				}
			}
		}
	}
	JOINT LeftHip
	{
		OFFSET 0.052140 -0.069960 -0.075570 
		CHANNELS 3 Zrotation Xrotation Yrotation
		JOINT LeftKnee
		{
			OFFSET 0.000000 -0.402270 0.000000 
			CHANNELS 1 Zrotation
			JOINT LeftAnkle
			{
				OFFSET 0.000000 -0.404085 0.000000 
				CHANNELS 3 Zrotation Xrotation Yrotation
				End Site
				{
					OFFSET 0.204105 -0.089430 -0.008415 
				}
			}
		}
	}
}
MOTION
Frames: 26
Frame Time: 0.02
-2e-05 0.95578 0 233.50696 0 -7.18083 4.05847 9.23778 -11.02546 -49.77567 11.69105 11.43066 48.2888 -34.843 5.13648 13.38394 83.03206 -0.39405 -4.47865 50.93781 0.02475 -0.29919 12.9837 -80.8744 3.39865 3.61218 10.3176 6.02578 26.96324 -15.30144 -15.61751 -1.83693 -10.79077 -8.33882 10.57851 12.02358 -9.4287 1.66804 3.51159 3.87046
0.01271 0.95521 -0.00262 232.11027 0 -7.03033 3.61401 8.84858 -10.6131 -49.21006 11.38068 11.11399 47.7317 -34.10363 5.59081 13.37674 82.96462 -0.27141 -4.54853 50.78906 0.52822 -0.71863 13.18332 -80.9331 3.44965 3.79829 10.76365 5.47802 27.2045 -14.38993 -16.35697 -1.82677 -10.06352 -8.59144 9.71475 11.93568 -8.33776 1.37097 3.66876 4.69307
0.02539 0.95464 -0.00525 230.72093 0 -6.88162 3.17256 8.46038 -10.20302 -48.6482 11.0713 10.79763 47.17581 -33.36535 6.04505 13.36783 82.89768 -0.14814 -4.61614 50.63946 1.03096 -1.13348 13.37973 -80.99183 3.49876 3.98186 11.20733 4.93541 27.43618 -13.48701 -17.09013 -1.81644 -9.34449 -8.84175 8.85651 11.84897 -7.25237 1.07469 3.82431 5.51089
0.03796 0.9541 -0.00787 229.34725 0 -6.73866 2.7387 8.07307 -9.80022 -48.0982 10.76523 10.48309 46.62368 -32.62926 6.49863 13.35249 82.83188 -0.02159 -4.67635 50.48861 1.53088 -1.52013 13.56811 -81.05261 3.54832 4.15618 11.64557 4.4052 27.61595 -12.60116 -17.8064 -1.80444 -8.65284 -9.08912 8.01146 11.76489 -6.17212 0.77612 3.97364 6.31824
0.05107 0.95343 -0.0105 227.89046 0 -6.56535 2.2645 7.68191 -9.36146 -47.48824 10.44448 10.16331 46.05686 -31.88759 6.94998 13.37176 82.75977 0.08707 -4.77691 50.34871 2.03999 -2.03965 13.80248 -81.10417 3.60448 4.37844 12.11226 3.8059 28.05163 -11.61486 -18.61353 -1.80022 -7.81806 -9.35662 7.09603 11.6654 -5.05697 0.48663 4.15444 7.18184
0.06305 0.95303 -0.01311 226.61101 0 -6.4563 1.8762 7.29872 -8.99743 -47.00377 10.15313 9.85195 45.51811 -31.15437 7.4095 13.31743 82.7013 0.2338 -4.79125 50.18283 2.53307 -2.28879 13.93701 -81.17404 3.64052 4.49981 12.51854 3.35562 27.95856 -10.84878 -19.2267 -1.78026 -7.28553 -9.57818 6.33071 11.59958 -4.02194 0.18028 4.2695 7.92506
0.07208 0.95341 -0.01566 225.80322 0 -6.52911 1.72255 6.93227 -8.85245 -46.88226 9.95477 9.58195 45.07498 -30.46041 7.87271 13.05449 82.67871 0.49078 -4.56609 49.96294 2.9597 -1.67061 13.80919 -81.30777 3.6733 4.32907 12.76068 3.29949 26.23689 -10.63337 -19.30911 -1.70871 -7.61528 -9.70122 5.97076 11.61937 -3.14291 -0.20054 4.19072 8.34923
0.07996 0.95407 -0.01818 225.17729 0 -6.66598 1.65617 6.57442 -8.78058 -46.88483 9.78398 9.31747 44.65665 -29.77215 8.3483 12.71823 82.67043 0.78546 -4.2542 49.71345 3.37369 -0.79695 13.57817 -81.45765 3.67749 4.05847 12.94121 3.39646 24.00888 -10.64954 -19.19441 -1.6226 -8.24582 -9.77325 5.76355 11.67398 -2.35522 -0.59389 4.04761 8.65003
0.08828 0.9546 -0.02071 224.47844 0 -6.77089 1.551 6.21561 -8.66668 -46.81913 9.5923 9.03751 44.21429 -29.06891 8.83096 12.41828 82.65648 1.06 -3.98218 49.46546 3.80971 -0.12302 13.38523 -81.59165 3.65908 3.84249 13.14902 3.43522 22.12192 -10.5983 -19.16746 -1.54842 -8.72075 -9.84977 5.49208 11.71821 -1.56787 -0.96355 3.94196 8.99888
0.09698 0.95514 -0.02325 223.73707 0 -6.88818 1.44115 5.84447 -8.58938 -46.80138 9.4348 8.80968 43.82468 -28.41444 9.25943 12.10451 82.63813 1.34752 -3.70692 49.26736 4.18107 0.88731 13.2287 -81.76175 3.78551 3.58872 13.36153 3.42796 19.77347 -10.39187 -19.15026 -1.4521 -9.27395 -10.00334 5.19923 11.74177 -0.60643 -1.4082 3.80209 9.38089
0.1046 0.95573 -0.02576 223.12946 0 -6.99443 1.36311 5.50098 -8.45395 -46.71601 9.2141 8.47795 43.33255 -27.6643 9.80437 11.80362 82.63344 1.61655 -3.41947 48.95908 4.67891 1.27839 12.97287 -81.86042 3.61025 3.38844 13.54748 3.55049 18.25772 -10.55809 -19.06335 -1.39808 -9.73752 -9.98661 4.9868 11.81375 -0.02625 -1.70077 3.71761 9.66528
0.10967 0.95643 -0.02834 222.82914 0 -7.05837 1.34011 5.23212 -8.13356 -46.3903 8.79961 7.82893 42.53933 -26.609 10.66188 11.54302 82.65321 1.82888 -3.1051 48.34741 5.57394 -0.28327 12.45929 -81.75882 2.55044 3.37341 13.69381 4.01443 19.23503 -11.74445 -18.85452 -1.46775 -9.86235 -9.49272 4.96219 12.03611 -0.50179 -1.56121 3.80685 9.70366
0.11368 0.95717 -0.03089 222.66058 0 -7.10825 1.34838 4.99077 -7.7533 -45.99698 8.32293 7.08063 41.64501 -25.46463 11.63675 11.30024 82.68779 2.02054 -2.78406 47.62738 6.5883 -2.44519 11.85114 -81.58466 1.19874 3.41332 13.81221 4.59979 21.05459 -13.28885 -18.57837 -1.57993 -9.8893 -8.83304 5.01267 12.30147 -1.35288 -1.27008 3.95303 9.64902
0.1181 0.95788 -0.03338 222.44294 0 -7.16211 1.34965 4.7364 -7.40485 -45.64935 7.88292 6.39673 40.80386 -24.38688 12.56255 11.05811 82.72234 2.21946 -2.47565 46.96075 7.51869 -4.21157 11.29186 -81.44305 0.0193 3.41933 13.93099 5.11627 22.44293 -14.63803 -18.3181 -1.67039 -9.97333 -8.26173 5.02666 12.53041 -2.01567 -1.05408 4.06995 9.6417
0.12282 0.95868 -0.03615 222.1853 0 -7.22851 1.32294 4.48412 -7.0398 -45.24125 7.40832 5.63136 39.9301 -23.19871 13.47303 10.77699 82.73022 2.42911 -2.12404 46.27427 8.57436 -6.47928 10.70348 -81.3036 -1.32756 3.45909 14.09902 5.6963 24.01881 -16.13274 -18.11217 -1.77022 -10.01702 -7.63282 5.05583 12.83111 -2.75697 -0.81132 4.19923 9.60994
0.12665 0.95928 -0.03833 222.04085 0 -7.26444 1.36152 4.23442 -6.69379 -44.94345 6.9907 5.01238 39.10365 -22.21961 14.44027 10.58165 82.79556 2.6105 -1.86152 45.6054 9.39742 -7.85868 10.15537 -81.14249 -2.39565 3.44348 14.15938 6.17033 25.4099 -17.40608 -17.78076 -1.86117 -10.11461 -7.0862 5.06939 12.99299 -3.42161 -0.58918 4.31673 9.60714
0.12843 0.95932 -0.03888 222.16887 0 -7.22103 1.56627 3.9811 -6.41834 -44.94912 6.74509 4.81959 38.40135 -21.83779 15.56133 10.62445 83.02813 2.72292 -1.85086 44.99835 9.5499 -6.55405 9.73536 -80.93678 -2.61358 3.25725 13.92273 6.32519 26.0925 -17.98131 -17.11106 -1.91412 -10.40993 -6.79874 5.01953 12.75222 -3.79267 -0.45181 4.39161 9.72024
0.12935 0.95915 -0.03883 222.40741 0 -7.14692 1.83645 3.73031 -6.16355 -45.07082 6.55903 4.77829 37.75634 -21.67023 16.73151 10.75228 83.31572 2.80657 -1.92974 44.41562 9.46383 -4.35243 9.36082 -80.71225 -2.54231 3.01473 13.57997 6.36779 26.56028 -18.3199 -16.32031 -1.95723 -10.75732 -6.60153 4.95117 12.37117 -4.07173 -0.34185 4.45232 9.86397
0.1306 0.95907 -0.03903 222.59888 0 -7.08555 2.08039 3.48075 -5.89621 -45.15028 6.34576 4.66873 37.10484 -21.4051 17.86101 10.83785 83.57004 2.90069 -1.96529 43.83033 9.48676 -2.61717 8.97008 -80.49781 -2.60932 2.8013 13.2907 6.45894 27.12486 -18.76541 -15.59094 -2.00706 -11.06223 -6.3691 4.89151 12.06066 -4.38537 -0.22569 4.51727 9.98547
0.13206 0.95899 -0.03931 222.77935 0 -7.02858 2.31049 3.22143 -5.63844 -45.18305 6.13053 4.55193 36.36533 -21.13569 19.06828 10.93924 83.85962 3.0055 -2.01168 43.20444 9.51236 -0.65203 8.55712 -80.27404 -2.65805 2.57488 12.97917 6.56496 27.72547 -19.227 -14.83069 -2.04925 -11.44084 -6.10703 4.8325 11.72532 -4.74096 -0.07891 4.59329 10.13819
0.13287 0.95888 -0.03928 223.01022 0 -6.95569 2.58484 2.98353 -5.36855 -45.34164 5.93488 4.48911 35.82652 -20.92975 20.12852 11.0277 84.08882 3.08097 -2.05689 42.67152 9.47296 1.05164 8.20247 -80.06659 -2.6718 2.36151 12.68794 6.6116 28.18475 -19.59319 -14.10879 -2.10401 -11.68269 -5.92947 4.76779 11.4049 -4.98458 -0.00302 4.64238 10.23508
0.13222 0.95872 -0.03859 223.32719 0 -6.84314 2.9629 2.79689 -5.04163 -45.81917 5.77504 4.52548 35.80871 -20.82697 20.72833 11.05927 84.13605 3.0867 -2.07684 42.38094 9.3216 1.84744 7.99874 -79.90562 -2.66293 2.19714 12.48911 6.52223 28.34004 -19.75946 -13.5071 -2.19956 -11.50679 -5.97149 4.68243 11.18475 -4.92085 -0.12861 4.61832 10.16473
0.13094 0.95855 -0.0376 223.69541 0 -6.71638 3.38372 2.63302 -4.70525 -46.42021 5.63437 4.61426 35.99587 -20.78562 21.18554 11.07498 84.12093 3.06314 -2.09257 42.1861 9.1103 2.34695 7.85244 -79.76272 -2.62669 2.0477 12.31226 6.37637 28.34988 -19.83453 -12.9514 -2.30719 -11.19684 -6.09484 4.59351 10.97961 -4.74951 -0.32307 4.56781 10.03855
0.12988 0.95838 -0.03672 224.05637 0 -6.5982 3.78615 2.46325 -4.38603 -46.96438 5.48703 4.68741 36.1012 -20.72843 21.73558 11.09803 84.13531 3.05035 -2.11034 41.95238 8.92045 2.96172 7.67968 -79.61396 -2.59948 1.89173 12.1191 6.25525 28.40022 -19.94641 -12.38503 -2.40668 -10.96691 -6.17628 4.51181 10.75118 -4.63916 -0.47853 4.53054 9.94221
0.12905 0.9582 -0.03592 224.35296 0 -6.46965 4.18565 2.27451 -4.01446 -47.51342 5.33102 4.72946 36.15713 -20.62423 22.17019 11.12315 84.14637 3.04744 -2.13072 41.69625 8.74869 3.68483 7.50996 -79.45444 -2.57703 1.73287 11.95025 6.13374 28.55233 -20.07176 -11.77116 -2.51709 -10.65888 -6.28129 4.40516 10.58747 -4.47507 -0.66714 4.48753 9.82848
0.1276 0.95804 -0.0349 224.79516 0 -6.36015 4.60159 2.13104 -3.74782 -48.083 5.19946 4.84896 36.36832 -20.63407 22.80932 11.13952 84.14923 3.01716 -2.14351 41.51376 8.52572 4.10587 7.34696 -79.32204 -2.54157 1.58416 11.73569 6.00169 28.45982 -20.14804 -11.26878 -2.60766 -10.48004 -6.35579 4.35075 10.29428 -4.3982 -0.80298 4.45056 9.73675
